<?xml version="1.0" standalone="no"?>
<!DOCTYPE svg PUBLIC "-//W3C//DTD SVG 20010904//EN"
 "http://www.w3.org/TR/2001/REC-SVG-20010904/DTD/svg10.dtd">
<svg version="1.0" xmlns="http://www.w3.org/2000/svg"
 width="1920.000000pt" height="1920.000000pt" viewBox="0 0 1920.000000 1920.000000"
 preserveAspectRatio="xMidYMid meet">
<metadata>
Created by potrace 1.14, written by Peter Selinger 2001-2017
</metadata>
<g transform="translate(0.000000,1920.000000) scale(0.100000,-0.100000)"
fill="#000000" stroke="none">
<path d="M9745 15842 c-323 -213 -417 -281 -595 -430 -226 -190 -432 -403
-642 -664 -57 -71 -211 -299 -265 -393 -146 -251 -282 -579 -348 -833 -27
-107 -64 -322 -76 -442 -13 -128 -7 -449 10 -545 37 -209 91 -385 158 -520 20
-38 113 -187 208 -330 200 -301 289 -447 407 -670 265 -499 427 -941 502
-1370 41 -231 45 -568 11 -760 -77 -432 -306 -759 -632 -906 -140 -63 -200
-74 -393 -73 -148 0 -187 4 -254 22 -200 56 -374 160 -536 322 -130 130 -204
233 -290 404 -133 264 -206 532 -240 889 -21 211 -11 621 20 847 5 35 8 65 7
66 -5 5 -171 -189 -294 -342 -517 -645 -836 -1289 -979 -1979 -72 -351 -80
-865 -18 -1205 41 -227 114 -483 191 -670 54 -131 192 -403 266 -523 57 -92
187 -278 237 -341 431 -537 966 -949 1595 -1226 293 -130 572 -213 950 -285
162 -31 287 -39 575 -39 333 -1 413 7 675 64 414 91 809 277 1135 537 119 94
362 338 460 463 166 209 322 467 440 728 97 215 152 372 255 727 12 41 32 129
71 310 23 109 67 402 82 550 9 90 9 349 0 440 -50 503 -218 959 -541 1465
-118 185 -327 470 -441 600 -17 20 -47 56 -66 80 -124 157 -509 572 -1076
1160 -392 407 -662 702 -804 880 -19 24 -50 62 -69 84 -60 73 -205 268 -269
365 -260 387 -416 746 -477 1096 -100 574 49 1132 461 1732 138 199 300 393
526 628 61 63 109 115 107 114 -2 0 -22 -12 -44 -27z"/>
</g>
</svg>
